# xmcd
#
# Track frame offsets:
#	150
#	20690
#	36825
#	52157
#	66025
#	87690
#	108457
#	124550
#	140142
#	160862
#
# Disc length: 2385 seconds
#
# Revision: 0
# Processed by: cddbd v1.4PL0 Copyright (c) Steve Scherf et al.
# Submitted via: dBpowerAMP V4.0
#
DISCID=91094f0a
DTITLE=Gitzi, Suzanne - Dressed in black
DYEAR=1900
DGENRE=Country
TTITLE0=Billy Walker
TTITLE1=Judge and jury
TTITLE2=Two sides of the same coin
TTITLE3=Water to wine
TTITLE4=Heartbreak Avenue
TTITLE5=All dressed up in black
TTITLE6=She's going dancing tohight
TTITLE7=Breakout
TTITLE8=Love like that
TTITLE9=Miss oportunity walks
EXTD=
EXTT0=
EXTT1=
EXTT2=
EXTT3=
EXTT4=
EXTT5=
EXTT6=
EXTT7=
EXTT8=
EXTT9=
PLAYORDER=
